<svg id="Calque_1" data-name="Calque 1" xmlns="http://www.w3.org/2000/svg" viewBox="0 0 431.33 499.91"><defs><style>.cls-1{fill:#191919;}</style></defs><title>icon france travel</title><path class="cls-1" d="M200.81,403.11c0-38.49.25-77-.18-115.47-.1-8.88,3.7-13.53,10.86-17.63,30.17-17.25,60.09-34.93,90.15-52.36,24.17-14,48.5-27.76,72.61-41.9,11.18-6.55,21.64-14.41,33.13-20.32,4.43-2.28,12.06-3,16.11-.67C463,177.29,502,200.69,541.2,223.67c27.19,15.93,54.74,31.27,81.61,47.72,4.41,2.69,8.64,9.78,8.68,14.87.54,78,.36,155.92.4,233.88,0,7.64-3.34,12.29-10.22,16.13-25.55,14.25-50.71,29.2-76,43.9q-36.25,21.09-72.5,42.21c-15.42,9-30.95,17.87-46.11,27.32-7.22,4.51-13.46,4.8-20.86.4-29.05-17.27-58.34-34.14-87.52-51.2C284.73,579,251.42,558,216.59,539.79c-14.67-7.64-16.28-17.12-16-31C201.26,473.58,200.81,438.34,200.81,403.11Zm209.45,11.16c-7.14,3.76-12,6.2-16.8,8.88q-17.37,9.8-34.63,19.79c-18.79,10.93-37.65,21.75-56.23,33-7.08,4.3-6.18,9.62,1,13.65,11.32,6.31,22.36,13.12,33.58,19.62,20.69,12,41.27,24.18,62.22,35.68,11.41,6.26,12.76,5.17,12.8-7.74q.13-54.33,0-108.66C412.18,424.49,411.13,420.45,410.26,414.27Zm1.66-157.69c-4.6,1.25-5.63,1.31-6.42,1.77Q354.2,287.85,303,317.47c-5.6,3.24-5.61,9.72,0,13.5,5.1,3.44,10.65,6.21,16,9.33,16.19,9.53,32.33,19.17,48.57,28.62,13.61,7.93,27.34,15.66,43.88,25.12C413,346.88,412.32,302.42,411.92,256.58Zm12.5,135.78c11.13-6.8,21.53-13.4,32.17-19.6,23.77-13.86,47.73-27.39,71.46-41.3,8.12-4.77,7.51-10.37-.58-15.1-20.66-12.09-41.06-24.64-61.76-36.66-13.62-7.91-27.6-15.21-41.45-22.81C418.85,267.94,419,382.11,424.42,392.36Zm-1.8,21.83c-.92,7.18-2.09,12.14-2.11,17.1-.16,34.88-.1,69.75-.06,104.63,0,2.92-.54,6.33.76,8.62,1.09,1.91,5.32,4.12,6.75,3.4,9.8-4.9,19.25-10.48,28.75-16,11.2-6.48,22.29-13.14,33.49-19.61,14-8.1,28.13-16,42-24.28,1.23-.73,2.15-4.5,1.4-5.56-2.38-3.32-5.18-6.74-8.61-8.84-16.28-9.94-32.78-19.54-49.28-29.1C459,434.86,442.08,425.32,422.62,414.19ZM289.77,336.33c-1.21,4.95-2.59,8-2.6,11-.15,37.19-.24,74.38,0,111.57,0,9.71,2.29,10.73,11.21,6.72a53.51,53.51,0,0,0,5.26-2.6c29.32-17.26,58.66-34.49,87.87-51.95,2.75-1.65,6.64-5,6.41-7.16-.32-3.09-3.39-6.79-6.3-8.55-20.55-12.42-41.32-24.46-62.09-36.5C317,351.59,304.3,344.56,289.77,336.33ZM543.18,469.67c1-5.21,2.19-8.6,2.2-12,.14-35.84.19-71.68-.08-107.51,0-3.5-1.5-8.88-3.85-9.94-2.63-1.19-7.24,1.12-10.62,2.7-4.94,2.31-9.58,5.29-14.29,8.06-24.8,14.61-49.64,29.15-74.3,44-3,1.81-6.92,5.08-7.08,7.86s3.49,6.5,6.4,8.27q37.71,22.89,75.8,45.11C525.12,460.74,533.31,464.55,543.18,469.67ZM216.82,300.06c1.79,6.78,4.9,17.66,7.52,28.67,3.54,14.83,6.43,29.82,10.27,44.57.71,2.73,4.34,5.64,7.2,6.48,1.46.42,4.85-3.2,6.27-5.64,9.8-16.78,19.22-33.78,28.94-50.61,10.21-17.67,20.74-35.15,30.81-52.9,1.44-2.53,1.07-6.07,1.54-9.15-2.94-.31-6.1-1.52-8.77-.81-22.55,5.95-45.13,11.84-67.42,18.67C225.54,281.69,216.33,284.29,216.82,300.06ZM615,302.51c2.53-17.8-7.28-20.6-15.21-23.06-22.29-6.91-44.91-12.74-67.47-18.75-2.8-.75-6,0-9,0,.53,3.39.12,7.3,1.71,10.08Q554.13,322,583.89,372.74c1.74,3,4.83,5.15,7.3,7.7,2.57-3.49,6.17-6.64,7.49-10.55,2.67-8,4.08-16.34,6-24.54C608.57,329.24,612.43,313.14,615,302.51Zm.59,205.06c-5.42-23-11.39-48.93-17.88-74.73-.6-2.38-4.34-5-7-5.48-1.69-.3-4.72,2.75-6,5-12.52,21.27-24.83,42.67-37.15,64.07-7.94,13.78-16,27.53-23.48,41.54-1.31,2.44-.57,6.13-.19,9.16.06.46,3.48,1.12,5.06.68,24.65-7,49.33-13.95,73.84-21.45C610,524.1,616.77,520.17,615.57,507.57ZM241.08,424.52c-3,4.52-5.9,7.26-6.85,10.55-2,6.85-2.64,14.05-4.33,21-4,16.69-8.3,33.33-12.59,50-2.63,10.2,2.08,16.61,11,19.87,10.34,3.77,21,6.7,31.63,9.67,13.41,3.75,26.9,7.27,40.4,10.69,2.82.71,5.87.55,8.81.79-.31-3.37.43-7.35-1.09-10q-29.61-52.12-59.85-103.89C246.73,430.56,244.42,428.49,241.08,424.52Zm175.42,141v1c-1.62-.17-3.23-.48-4.85-.49-18.25-.18-36.49-.46-54.73-.31-2.93,0-5.84,2.08-8.76,3.19.88,2.23,1.15,5.09,2.72,6.6,19.73,18.92,39.75,37.56,59.47,56.5,4.27,4.1,7.51,3.93,11.59.07,19.15-18.11,38.48-36,57.55-54.25,2.33-2.22,3.47-5.7,5.16-8.6-3.5-1.23-7-3.47-10.5-3.53C454.93,565.35,435.72,565.53,416.5,565.53Zm-.36-324.8c19.54,0,39.08.14,58.61-.14a13.44,13.44,0,0,0,8.46-3.37c.84-.81-.67-5.64-2.4-7.31-18.69-18.12-37.76-35.85-56.45-54-6.05-5.88-10.9-5-16.5.37-17.83,17.13-35.92,34-53.65,51.23-2.49,2.42-3.5,6.37-5.19,9.62,3.48,1.2,7,3.38,10.46,3.45C378.36,240.94,397.25,240.76,416.14,240.73ZM275,348.82c-8.3,14.07-15.63,27.36-23.82,40.1-6.48,10.08-5.79,19.5,0,29.27,2,3.34,3.75,6.8,5.76,10.12,5.88,9.68,11.82,19.31,18.44,30.1C281,446.92,280.45,357,275,348.82Zm279.68,107.1,2.93.43a33.18,33.18,0,0,0,3.49-4.13c6.52-10.83,12.64-21.92,19.48-32.54,7.49-11.63,7.75-20,0-31.59-1.62-2.42-2.86-5.08-4.34-7.6Q567.13,365,558,349.5l-3.56,1C553.24,385.65,552.7,420.8,554.69,455.92Zm-164-198.24c-5.37-2.39-8.46-4.87-11.62-5-13.34-.44-26.77-.93-40,.25-4.86.43-10.75,4.43-13.68,8.57-7.49,10.55-13.83,22-20.07,33.32-1.67,3-1.31,7.18-1.88,10.82l2.79,1.13Zm135.8,49.11,3-1.46c-.64-3.5-.42-7.47-2.06-10.43-6.28-11.35-13.56-22.16-19.65-33.61-3.45-6.48-8.53-8.66-15-8.75-12.7-.18-25.42-.34-38.11.11-3.49.13-6.91,2.43-10.36,3.73.16,1,.31,1.92.47,2.87ZM302.56,498.39c.32,4.88-.25,7.45.71,9.16,8,14.08,15.87,28.2,24.59,41.81,1.67,2.6,6.75,4.08,10.33,4.22,13.33.49,26.7.44,40,0,2.67-.09,5.26-2.71,7.89-4.16-1.8-2-3.29-4.45-5.47-5.82-10.93-6.87-21.93-13.65-33.11-20.1C333.36,515.36,319,507.55,302.56,498.39Zm227.26,1c-7.75,3.76-12.82,5.83-17.51,8.56q-30.07,17.56-59.89,35.55c-2.35,1.42-3.81,4.3-5.68,6.51,2.77,1.27,5.51,3.56,8.31,3.65,13,.38,26.07.84,39-.23,4.66-.38,10.44-3.94,13.16-7.83,7.6-10.85,14.07-22.52,20.52-34.13C529.23,508.75,528.92,505,529.82,499.38Zm-253.5,56.15c25,18.66,69.83,43.18,78.08,42.88C350.18,577.32,293.76,545.74,276.32,555.53ZM217.17,448.05l4.37,0C225,433,231.16,418,231.07,403s-6.41-30.15-10-45.22l-4,.48A356.28,356.28,0,0,0,217.17,448.05ZM478,597.91l2,3.23,77.48-45.27C537,546.85,485.43,575.57,478,597.91Zm.79-389.46c15.07,31,60.77,49.83,76.36,41.28C529.85,234.51,505.69,219,478.81,208.45Zm-125-.07c-27.3,10.76-51.78,26.69-77.76,42.1C294.92,258.38,339.78,237.74,353.82,208.38ZM613.71,358.5c-14.1,30-15,59.82.23,89.51C619.37,418.18,618.84,388.35,613.71,358.5Z" transform="translate(-200.56 -153.34)"/></svg>