<?xml version="1.0" encoding="UTF-8"?> <svg xmlns="http://www.w3.org/2000/svg" id="Calque_1" data-name="Calque 1" viewBox="0 0 567.87 72"><defs><style>.cls-1{fill:#191919;}</style></defs><title>logo_black</title><path class="cls-1" d="M115.68,227H103.92V164h18.73l6.3,29.23a142.24,142.24,0,0,1,2.19,14.53h.16a138.26,138.26,0,0,1,1.85-14.53l6.3-29.23H158.1v63H146.34V207.17c0-12.52.25-25,1-37.55h-.17L134.58,227h-7.14l-12.35-57.37h-.42c.76,12.51,1,25,1,37.55Z" transform="translate(-103.92 -158.99)"></path><path class="cls-1" d="M164.4,227l15-63h15.87l14.28,63H197l-3.11-16H180.11L177,227ZM182,201.79H192l-3.2-17.89c-.58-2.94-.84-5.8-1.17-8.74-.09-1.43-.25-2.85-.42-4.2h-.17c-.17,1.35-.34,2.77-.42,4.2-.34,2.94-.59,5.8-1.18,8.74Z" transform="translate(-103.92 -158.99)"></path><path class="cls-1" d="M256.13,227H242.69L236,211.62a37.09,37.09,0,0,1-2.44-8h-.17c-.5,4.2-2.35,8-4,11.76L224.12,227H211.27l15.46-31.92L211.86,164h13.19l6.38,14.28c1.09,2.6,2.19,5,2.27,7.9H234c.34-4.12,2.27-7.82,3.87-11.51L242.35,164h13.27L240.5,195.07Z" transform="translate(-103.92 -158.99)"></path><path class="cls-1" d="M262.85,227V164h11.76v63Z" transform="translate(-103.92 -158.99)"></path><path class="cls-1" d="M297.79,227H286V164h18.73l6.3,29.23a142.24,142.24,0,0,1,2.19,14.53h.17a136,136,0,0,1,1.84-14.53l6.3-29.23h18.65v63H328.45V207.17c0-12.52.25-25,1-37.55h-.17L316.69,227h-7.14L297.2,169.62h-.42c.76,12.51,1,25,1,37.55Z" transform="translate(-103.92 -158.99)"></path><path class="cls-1" d="M351.13,227V164h33.1v9.24H362.89v15.88h19.66v9.24H362.89v19.4h21.34V227Z" transform="translate(-103.92 -158.99)"></path><path class="cls-1" d="M515.5,172c-9.24,0-8.49,11-8.49,15.88v17.47c0,5.21.42,13.69,8.49,13.69,8.4,0,8.48-8.65,8.48-14.7V188.18C524,183.14,524.23,172,515.5,172Z" transform="translate(-103.92 -158.99)"></path><path class="cls-1" d="M590.51,173.23h-8.74v17.39H591c3.87-.25,6.89-2.77,6.89-9.07C597.9,174.49,595,173.31,590.51,173.23Z" transform="translate(-103.92 -158.99)"></path><path class="cls-1" d="M399.29,159v72h272.5V159Zm45,14.24H422.93v15.88h19.65v9.24H422.93v19.4h21.33V227H411.17V164h33.09ZM487.1,227H453.5V164h11.76v53.76H487.1Zm49-27.55c0,16.8-1.26,29.06-20.58,29.06s-20.58-12.26-20.58-29.06v-9c.5-16,1.76-28,20.58-28s20.07,11.93,20.58,28ZM558.67,227H546.91V164h11.76Zm53.42,0H599.16c-1.43-4-1.18-11.76-1.26-16-.09-3.86,0-9.16-4-10.33-3.2-.93-6.64-.84-10-.84h-2.1V227H570V164h22.26c10.16,0,17.89,3.53,17.89,15.12,0,6.89-1.76,14.11-9.66,15.2v.17c7,.93,9.07,5.38,9.07,11.43,0,2.6-.33,18.06,2.52,19.9Z" transform="translate(-103.92 -158.99)"></path></svg> 